<svg width="25" height="32" viewBox="0 0 25 32" fill="none" xmlns="http://www.w3.org/2000/svg">
<g clip-path="url(#clip0_10_105)">
<path fill-rule="evenodd" clip-rule="evenodd" d="M21.9291 24.4694L17.235 19.7762C20.0614 16.383 19.7189 11.3669 16.4576 8.38935C13.1963 5.41176 8.16978 5.526 5.04711 8.64867C1.92444 11.7713 1.8102 16.7978 4.78779 20.0591C7.76537 23.3204 12.7815 23.6629 16.1747 20.8366L20.8678 25.5306C21.1609 25.8237 21.636 25.8237 21.9291 25.5306C22.2221 25.2376 22.2221 24.7624 21.9291 24.4694ZM4.14844 14.5C4.14844 10.7721 7.17052 7.75 10.8984 7.75C14.6264 7.75 17.6484 10.7721 17.6484 14.5C17.6484 18.2279 14.6264 21.25 10.8984 21.25C7.17223 21.2459 4.15257 18.2262 4.14844 14.5Z" fill="#964F66"/>
</g>
<defs>
<clipPath id="clip0_10_105">
<rect width="24" height="24" fill="white" transform="translate(0.398438 4)"/>
</clipPath>
</defs>
</svg>
