<svg width="25" height="32" viewBox="0 0 25 32" fill="none" xmlns="http://www.w3.org/2000/svg">
<g clip-path="url(#clip0_10_114)">
<path fill-rule="evenodd" clip-rule="evenodd" d="M11.5938 18.805C13.6576 17.431 14.5785 14.8677 13.8607 12.4944C13.143 10.1211 10.956 8.49772 8.47656 8.49772C5.99714 8.49772 3.81013 10.1211 3.0924 12.4944C2.37466 14.8677 3.29549 17.431 5.35938 18.805C3.54109 19.4752 1.98822 20.7153 0.9325 22.3403C0.781494 22.5647 0.763047 22.8531 0.884222 23.095C1.0054 23.3368 1.24742 23.4947 1.51759 23.5081C1.78777 23.5215 2.04423 23.3884 2.18875 23.1597C3.57233 21.0317 5.93833 19.7479 8.47656 19.7479C11.0148 19.7479 13.3808 21.0317 14.7644 23.1597C14.9933 23.4999 15.4529 23.5932 15.7964 23.3692C16.1398 23.1452 16.2397 22.6869 16.0206 22.3403C14.9649 20.7153 13.412 19.4752 11.5938 18.805ZM4.35156 14.125C4.35156 11.8468 6.19839 10 8.47656 10C10.7547 10 12.6016 11.8468 12.6016 14.125C12.6016 16.4032 10.7547 18.25 8.47656 18.25C6.19946 18.2474 4.35415 16.4021 4.35156 14.125ZM24.0522 23.3781C23.7053 23.6043 23.2407 23.5066 23.0144 23.1597C21.6324 21.0303 19.2651 19.7466 16.7266 19.75C16.3123 19.75 15.9766 19.4142 15.9766 19C15.9766 18.5858 16.3123 18.25 16.7266 18.25C18.3879 18.2484 19.8861 17.2504 20.5277 15.718C21.1692 14.1855 20.8289 12.4178 19.6642 11.2331C18.4995 10.0484 16.7378 9.67805 15.1947 10.2934C14.9442 10.4017 14.6547 10.3654 14.4387 10.1986C14.2227 10.0319 14.1144 9.76096 14.1558 9.49125C14.1972 9.22154 14.3818 8.99558 14.6378 8.90125C17.3125 7.83457 20.3608 8.96001 21.7006 11.5088C23.0404 14.0576 22.239 17.2067 19.8438 18.805C21.662 19.4752 23.2149 20.7153 24.2706 22.3403C24.4968 22.6872 24.3991 23.1518 24.0522 23.3781Z" fill="#964F66"/>
</g>
<defs>
<clipPath id="clip0_10_114">
<rect width="24" height="24" fill="white" transform="translate(0.601562 4)"/>
</clipPath>
</defs>
</svg>
